<svg xmlns="http://www.w3.org/2000/svg" xmlns:xlink="http://www.w3.org/1999/xlink" width="300" zoomAndPan="magnify" viewBox="0 0 224.87999 74.999997" height="100" preserveAspectRatio="xMidYMid meet" version="1.0"><defs><filter x="0%" y="0%" width="100%" height="100%" id="6942cc1b71"><feColorMatrix values="0 0 0 0 1 0 0 0 0 1 0 0 0 0 1 0 0 0 1 0" color-interpolation-filters="sRGB"/></filter><g/><clipPath id="5863d547aa"><path d="M 21 0.0195312 L 73 0.0195312 L 73 74.980469 L 21 74.980469 Z M 21 0.0195312 " clip-rule="nonzero"/></clipPath><mask id="60d67c29ad"><g filter="url(#6942cc1b71)"><rect x="-22.487999" width="269.855988" fill="#000000" y="-7.5" height="89.999996" fill-opacity="0.2"/></g></mask><clipPath id="e4760cca61"><path d="M 25 1.027344 L 35 1.027344 L 35 5 L 25 5 Z M 25 1.027344 " clip-rule="nonzero"/></clipPath><clipPath id="8e13429081"><path d="M 33 12 L 51.664062 12 L 51.664062 33 L 33 33 Z M 33 12 " clip-rule="nonzero"/></clipPath><clipPath id="5b05efb441"><path d="M 24 70 L 35 70 L 35 73.738281 L 24 73.738281 Z M 24 70 " clip-rule="nonzero"/></clipPath><clipPath id="2d25e02a13"><path d="M 42 24 L 51.664062 24 L 51.664062 64 L 42 64 Z M 42 24 " clip-rule="nonzero"/></clipPath><clipPath id="bcdce1e47c"><path d="M 20 64 L 43 64 L 43 73.738281 L 20 73.738281 Z M 20 64 " clip-rule="nonzero"/></clipPath><clipPath id="b722d8b538"><path d="M 0.691406 25 L 39 25 L 39 46 L 0.691406 46 Z M 0.691406 25 " clip-rule="nonzero"/></clipPath><clipPath id="237b6ab3b2"><path d="M 0.691406 29 L 36 29 L 36 55 L 0.691406 55 Z M 0.691406 29 " clip-rule="nonzero"/></clipPath><clipPath id="e8cb0f2220"><rect x="0" width="52" y="0" height="75"/></clipPath><clipPath id="db76b6b78f"><path d="M 65 0.765625 L 163.578125 0.765625 L 163.578125 34.828125 L 65 34.828125 Z M 65 0.765625 " clip-rule="nonzero"/></clipPath><clipPath id="64ab730c47"><rect x="0" width="99" y="0" height="35"/></clipPath><clipPath id="6f19e995b6"><path d="M 0.703125 0.765625 L 66 0.765625 L 66 34.828125 L 0.703125 34.828125 Z M 0.703125 0.765625 " clip-rule="nonzero"/></clipPath><clipPath id="42cf26f0fb"><rect x="0" width="66" y="0" height="35"/></clipPath><clipPath id="c379b1f9b5"><rect x="0" width="164" y="0" height="35"/></clipPath></defs><g clip-path="url(#5863d547aa)"><g mask="url(#60d67c29ad)"><g transform="matrix(1, 0, 0, 1, 21, -0.000000000000000888)"><g clip-path="url(#e8cb0f2220)"><g clip-path="url(#e4760cca61)"><path fill="#e6ecf0" d="M 26.363281 2.554688 C 28.878906 2.785156 31.359375 3.386719 33.949219 4.386719 C 34.039062 4.421875 34.132812 4.4375 34.222656 4.4375 C 34.53125 4.4375 34.816406 4.253906 34.933594 3.949219 C 35.085938 3.558594 34.890625 3.113281 34.496094 2.964844 C 31.773438 1.914062 29.160156 1.28125 26.503906 1.035156 C 26.085938 0.996094 25.714844 1.300781 25.675781 1.722656 C 25.636719 2.140625 25.945312 2.511719 26.363281 2.550781 Z M 26.363281 2.554688 " fill-opacity="1" fill-rule="nonzero"/></g><path fill="#e6ecf0" d="M 18.359375 5.019531 C 24.546875 4.707031 30.789062 5.921875 36.386719 8.53125 C 36.492188 8.582031 36.601562 8.601562 36.710938 8.601562 C 36.996094 8.601562 37.273438 8.441406 37.402344 8.164062 C 37.578125 7.78125 37.414062 7.328125 37.035156 7.152344 C 31.210938 4.4375 24.734375 3.175781 18.285156 3.5 C 17.867188 3.523438 17.542969 3.878906 17.5625 4.300781 C 17.585938 4.71875 17.953125 5.050781 18.363281 5.023438 Z M 18.359375 5.019531 " fill-opacity="1" fill-rule="nonzero"/><path fill="#e6ecf0" d="M 38.671875 9.6875 C 40.148438 10.5 41.59375 11.417969 42.96875 12.421875 C 43.101562 12.519531 43.257812 12.570312 43.417969 12.570312 C 43.652344 12.570312 43.882812 12.460938 44.03125 12.257812 C 44.28125 11.917969 44.207031 11.441406 43.867188 11.195312 C 42.441406 10.152344 40.941406 9.195312 39.402344 8.351562 C 39.035156 8.152344 38.574219 8.285156 38.367188 8.652344 C 38.167969 9.023438 38.300781 9.484375 38.671875 9.6875 Z M 38.671875 9.6875 " fill-opacity="1" fill-rule="nonzero"/><g clip-path="url(#8e13429081)"><path fill="#e6ecf0" d="M 51.6875 30.992188 C 51.484375 30.507812 51.265625 30.023438 51.039062 29.546875 C 50.902344 29.257812 50.75 28.972656 50.605469 28.683594 C 50.511719 28.5 50.421875 28.3125 50.324219 28.132812 C 50.210938 27.917969 50.085938 27.710938 49.96875 27.503906 C 49.824219 27.246094 49.683594 26.988281 49.535156 26.734375 C 49.484375 26.644531 49.425781 26.5625 49.371094 26.476562 C 45.871094 20.722656 40.707031 15.972656 34.679688 13.09375 C 34.660156 13.085938 34.636719 13.089844 34.613281 13.078125 C 34.449219 12.996094 34.289062 12.910156 34.121094 12.828125 C 33.742188 12.644531 33.285156 12.808594 33.105469 13.1875 C 32.921875 13.566406 33.085938 14.019531 33.464844 14.203125 C 39.667969 17.167969 44.757812 21.769531 48.15625 27.40625 C 48.175781 27.4375 48.195312 27.46875 48.214844 27.5 C 48.390625 27.792969 48.554688 28.089844 48.722656 28.390625 C 48.804688 28.539062 48.894531 28.691406 48.976562 28.84375 C 49.097656 29.066406 49.207031 29.296875 49.320312 29.523438 C 49.4375 29.746094 49.554688 29.972656 49.664062 30.199219 C 49.882812 30.65625 50.089844 31.117188 50.285156 31.582031 C 50.40625 31.875 50.691406 32.050781 50.988281 32.050781 C 51.285156 32.050781 51.1875 32.03125 51.28125 31.992188 C 51.570312 31.867188 51.746094 31.585938 51.746094 31.289062 C 51.746094 31.191406 51.726562 31.089844 51.6875 30.992188 Z M 51.6875 30.992188 " fill-opacity="1" fill-rule="nonzero"/></g><path fill="#e6ecf0" d="M 12.671875 8.96875 C 12.726562 8.96875 12.777344 8.964844 12.832031 8.949219 C 15.734375 8.335938 18.714844 8.09375 21.933594 8.214844 C 22.34375 8.238281 22.703125 7.902344 22.722656 7.484375 C 22.738281 7.0625 22.410156 6.707031 21.992188 6.691406 C 21.917969 6.691406 21.851562 6.691406 21.785156 6.691406 C 21.746094 6.6875 21.714844 6.667969 21.671875 6.667969 C 18.625 6.550781 15.546875 6.816406 12.515625 7.460938 C 12.105469 7.550781 11.839844 7.953125 11.929688 8.363281 C 12.003906 8.722656 12.324219 8.96875 12.671875 8.96875 Z M 12.671875 8.96875 " fill-opacity="1" fill-rule="nonzero"/><path fill="#e6ecf0" d="M 23.824219 7.5625 C 23.773438 7.980469 24.070312 8.363281 24.488281 8.410156 C 33.433594 9.484375 41.925781 14.1875 47.78125 21.320312 C 47.933594 21.503906 48.148438 21.597656 48.371094 21.597656 C 48.59375 21.597656 48.710938 21.539062 48.855469 21.421875 C 49.179688 21.152344 49.226562 20.675781 48.960938 20.347656 C 42.855469 12.917969 34.003906 8.011719 24.671875 6.894531 C 24.242188 6.847656 23.875 7.144531 23.824219 7.558594 Z M 23.824219 7.5625 " fill-opacity="1" fill-rule="nonzero"/><g clip-path="url(#5b05efb441)"><path fill="#e6ecf0" d="M 33.683594 71.011719 C 31.515625 71.992188 29.214844 72.445312 26.433594 72.445312 C 23.65625 72.445312 25.675781 72.785156 25.675781 73.207031 C 25.675781 73.625 26.015625 73.964844 26.433594 73.964844 C 29.4375 73.964844 31.9375 73.46875 34.308594 72.394531 C 34.691406 72.222656 34.863281 71.773438 34.691406 71.390625 C 34.515625 71.007812 34.070312 70.832031 33.683594 71.007812 Z M 33.683594 71.011719 " fill-opacity="1" fill-rule="nonzero"/></g><g clip-path="url(#2d25e02a13)"><path fill="#e6ecf0" d="M 51.082031 41.828125 C 51.070312 41.6875 51.050781 41.542969 51.039062 41.40625 C 51.019531 41.234375 51.007812 41.0625 50.988281 40.894531 C 50.929688 40.363281 50.859375 39.828125 50.769531 39.292969 C 50.757812 39.21875 50.753906 39.140625 50.742188 39.066406 C 50.71875 38.941406 50.6875 38.820312 50.664062 38.695312 C 50.597656 38.320312 50.519531 37.949219 50.4375 37.578125 C 50.347656 37.179688 50.253906 36.785156 50.148438 36.390625 C 50.089844 36.167969 50.03125 35.945312 49.964844 35.726562 C 49.773438 35.054688 49.558594 34.386719 49.324219 33.730469 C 49.316406 33.714844 49.3125 33.695312 49.304688 33.679688 C 49.175781 33.320312 49.035156 32.960938 48.894531 32.605469 C 48.863281 32.527344 48.828125 32.453125 48.796875 32.378906 C 48.550781 31.785156 48.289062 31.199219 48.003906 30.621094 C 47.917969 30.441406 47.828125 30.261719 47.738281 30.085938 C 47.542969 29.703125 47.339844 29.320312 47.125 28.945312 C 46.953125 28.632812 46.773438 28.324219 46.585938 28.019531 C 46.464844 27.820312 46.34375 27.621094 46.21875 27.429688 C 45.933594 26.980469 45.636719 26.539062 45.324219 26.105469 C 45.246094 25.992188 45.160156 25.878906 45.082031 25.769531 C 44.722656 25.28125 44.355469 24.800781 43.972656 24.332031 C 43.703125 24.007812 43.226562 23.964844 42.898438 24.230469 C 42.574219 24.496094 42.527344 24.976562 42.796875 25.300781 C 43.164062 25.75 43.515625 26.207031 43.855469 26.671875 C 43.933594 26.777344 44.011719 26.878906 44.082031 26.984375 C 44.382812 27.398438 44.664062 27.824219 44.9375 28.253906 C 45.054688 28.433594 45.167969 28.621094 45.277344 28.804688 C 45.464844 29.105469 45.640625 29.410156 45.8125 29.71875 C 46.003906 30.0625 46.191406 30.40625 46.371094 30.757812 C 46.464844 30.9375 46.554688 31.121094 46.644531 31.300781 C 46.898438 31.828125 47.140625 32.363281 47.367188 32.90625 C 47.40625 33 47.449219 33.09375 47.484375 33.1875 C 47.621094 33.519531 47.746094 33.855469 47.871094 34.1875 C 47.890625 34.242188 47.90625 34.296875 47.925781 34.355469 C 48.136719 34.941406 48.328125 35.535156 48.5 36.132812 C 48.5625 36.355469 48.625 36.578125 48.683594 36.804688 C 48.777344 37.164062 48.863281 37.523438 48.945312 37.882812 C 49.027344 38.25 49.101562 38.617188 49.171875 38.988281 C 49.203125 39.171875 49.238281 39.351562 49.265625 39.53125 C 49.347656 40.03125 49.417969 40.546875 49.476562 41.066406 C 49.496094 41.238281 49.507812 41.410156 49.523438 41.582031 C 49.542969 41.792969 49.554688 42.007812 49.574219 42.222656 C 49.644531 43.320312 49.652344 44.445312 49.648438 45.535156 L 49.648438 45.867188 C 49.648438 46.785156 49.609375 47.605469 49.53125 48.375 C 49.53125 48.394531 49.539062 48.414062 49.535156 48.433594 C 49.292969 50.460938 48.632812 52.726562 47.53125 55.328125 C 46.320312 58.191406 44.804688 60.511719 42.898438 62.425781 C 42.601562 62.722656 42.601562 63.207031 42.898438 63.503906 C 43.046875 63.652344 43.242188 63.726562 43.4375 63.726562 C 43.628906 63.726562 43.828125 63.652344 43.976562 63.503906 C 46.023438 61.449219 47.640625 58.972656 48.933594 55.925781 C 50.273438 52.761719 50.996094 50.039062 51.140625 47.605469 C 51.253906 45.746094 51.226562 43.910156 51.09375 42.144531 C 51.085938 42.042969 51.085938 41.9375 51.078125 41.835938 Z M 51.082031 41.828125 " fill-opacity="1" fill-rule="nonzero"/></g><path fill="#e6ecf0" d="M 8.871094 13.351562 C 8.957031 13.351562 9.042969 13.339844 9.128906 13.308594 C 16.242188 10.757812 23.996094 10.714844 30.960938 13.199219 C 31.355469 13.335938 31.792969 13.132812 31.933594 12.734375 C 32.074219 12.339844 31.867188 11.902344 31.46875 11.761719 C 24.171875 9.167969 16.054688 9.203125 8.613281 11.875 C 8.214844 12.019531 8.011719 12.453125 8.152344 12.851562 C 8.261719 13.160156 8.558594 13.351562 8.871094 13.351562 Z M 8.871094 13.351562 " fill-opacity="1" fill-rule="nonzero"/><path fill="#e6ecf0" d="M 6.058594 18.066406 C 6.175781 18.066406 6.296875 18.039062 6.410156 17.980469 C 8.527344 16.863281 10.78125 16.003906 13.101562 15.429688 C 13.511719 15.324219 13.761719 14.914062 13.65625 14.507812 C 13.554688 14.097656 13.140625 13.855469 12.734375 13.953125 C 10.296875 14.558594 7.925781 15.460938 5.703125 16.632812 C 5.328125 16.828125 5.1875 17.285156 5.382812 17.660156 C 5.515625 17.917969 5.78125 18.066406 6.058594 18.066406 Z M 6.058594 18.066406 " fill-opacity="1" fill-rule="nonzero"/><path fill="#e6ecf0" d="M 15.550781 13.386719 C 15.136719 13.449219 14.851562 13.839844 14.917969 14.253906 C 14.980469 14.667969 15.363281 14.953125 15.785156 14.890625 C 24.976562 13.476562 34.402344 16.621094 41 23.300781 C 41.148438 23.453125 41.34375 23.527344 41.542969 23.527344 C 41.738281 23.527344 41.929688 23.453125 42.078125 23.308594 C 42.375 23.011719 42.378906 22.53125 42.085938 22.230469 C 35.144531 15.203125 25.226562 11.894531 15.550781 13.382812 Z M 15.550781 13.386719 " fill-opacity="1" fill-rule="nonzero"/><g clip-path="url(#bcdce1e47c)"><path fill="#e6ecf0" d="M 41.761719 64.238281 C 41.492188 64.027344 41.109375 64.003906 40.828125 64.230469 C 37.738281 66.683594 34.058594 68.316406 30.183594 68.949219 C 29.507812 69.058594 28.824219 69.140625 28.140625 69.1875 C 28.117188 69.1875 28.09375 69.1875 28.070312 69.191406 C 27.75 69.210938 27.429688 69.230469 27.109375 69.238281 C 26.730469 69.25 26.355469 69.253906 25.980469 69.246094 L 25.917969 69.246094 C 25.917969 69.246094 25.824219 69.238281 25.824219 69.238281 C 25.683594 69.226562 25.535156 69.21875 25.402344 69.230469 C 24.886719 69.28125 24.535156 69.550781 24.25 69.773438 C 23.898438 70.03125 23.527344 70.285156 23.15625 70.535156 C 22.976562 70.65625 22.804688 70.78125 22.621094 70.898438 C 22.0625 71.257812 21.492188 71.609375 20.902344 71.945312 C 20.535156 72.148438 20.40625 72.617188 20.613281 72.980469 C 20.753906 73.230469 21.011719 73.371094 21.277344 73.371094 C 21.542969 73.371094 21.53125 73.335938 21.648438 73.273438 C 22.261719 72.921875 22.863281 72.558594 23.445312 72.183594 C 23.636719 72.058594 23.820312 71.929688 24.003906 71.800781 C 24.308594 71.59375 24.625 71.394531 24.917969 71.183594 C 25 71.121094 25.078125 71.0625 25.15625 71 C 25.21875 70.953125 25.285156 70.910156 25.347656 70.867188 C 25.496094 70.757812 25.511719 70.757812 25.84375 70.769531 L 25.878906 70.769531 C 25.890625 70.769531 25.90625 70.769531 25.917969 70.769531 C 25.929688 70.769531 25.945312 70.769531 25.957031 70.769531 L 26.050781 70.769531 C 26.320312 70.777344 26.597656 70.769531 26.871094 70.769531 C 29.894531 70.71875 32.925781 70.140625 35.703125 69.066406 C 37.976562 68.1875 40.070312 66.996094 41.917969 65.523438 C 42.25 65.257812 42.300781 64.78125 42.039062 64.453125 C 41.960938 64.355469 41.863281 64.289062 41.757812 64.242188 Z M 41.761719 64.238281 " fill-opacity="1" fill-rule="nonzero"/></g><path fill="#e6ecf0" d="M 3.917969 23.1875 C 4.078125 23.1875 4.238281 23.140625 4.375 23.035156 C 8.515625 19.941406 13.628906 18.078125 18.777344 17.792969 C 22.007812 17.617188 24.824219 17.933594 27.160156 18.738281 C 27.554688 18.875 27.992188 18.664062 28.128906 18.269531 C 28.265625 17.871094 28.054688 17.4375 27.65625 17.300781 C 25.132812 16.425781 22.125 16.078125 18.695312 16.269531 C 13.253906 16.574219 7.84375 18.539062 3.464844 21.8125 C 3.128906 22.066406 3.0625 22.542969 3.3125 22.878906 C 3.460938 23.082031 3.6875 23.1875 3.921875 23.1875 Z M 3.917969 23.1875 " fill-opacity="1" fill-rule="nonzero"/><path fill="#e6ecf0" d="M 37.847656 22.675781 C 37.816406 22.652344 37.785156 22.625 37.753906 22.601562 C 37.566406 22.441406 37.382812 22.277344 37.191406 22.128906 C 37.015625 21.988281 36.828125 21.863281 36.644531 21.726562 C 36.492188 21.609375 36.332031 21.496094 36.175781 21.382812 C 35.859375 21.152344 35.539062 20.929688 35.210938 20.71875 C 34.996094 20.574219 34.773438 20.441406 34.554688 20.300781 C 34.265625 20.125 33.980469 19.945312 33.6875 19.78125 C 33.386719 19.609375 33.078125 19.453125 32.769531 19.292969 C 32.539062 19.175781 32.316406 19.046875 32.085938 18.9375 C 31.53125 18.667969 30.96875 18.414062 30.398438 18.183594 C 30.011719 18.03125 29.566406 18.21875 29.40625 18.605469 C 29.25 18.996094 29.4375 19.441406 29.828125 19.597656 C 30.367188 19.816406 30.898438 20.054688 31.425781 20.308594 C 31.636719 20.410156 31.839844 20.523438 32.042969 20.632812 C 32.347656 20.789062 32.648438 20.941406 32.945312 21.113281 C 33.210938 21.261719 33.46875 21.425781 33.726562 21.582031 C 33.953125 21.722656 34.175781 21.859375 34.394531 22 C 34.6875 22.195312 34.976562 22.394531 35.265625 22.601562 C 35.429688 22.71875 35.59375 22.839844 35.753906 22.960938 C 36.09375 23.21875 36.429688 23.480469 36.757812 23.75 C 36.808594 23.789062 36.855469 23.832031 36.902344 23.871094 C 37.285156 24.195312 37.660156 24.527344 38.023438 24.871094 C 38.042969 24.886719 38.0625 24.902344 38.078125 24.921875 C 38.464844 25.285156 38.839844 25.664062 39.203125 26.050781 C 39.203125 26.050781 39.203125 26.050781 39.207031 26.050781 C 40.316406 27.238281 41.320312 28.527344 42.203125 29.894531 C 42.214844 29.90625 42.222656 29.921875 42.234375 29.9375 C 42.511719 30.367188 42.777344 30.808594 43.027344 31.257812 C 43.054688 31.300781 43.078125 31.34375 43.101562 31.386719 C 43.335938 31.800781 43.554688 32.222656 43.765625 32.652344 C 43.808594 32.738281 43.847656 32.824219 43.890625 32.910156 C 44.074219 33.292969 44.246094 33.683594 44.410156 34.074219 C 44.472656 34.21875 44.53125 34.363281 44.585938 34.511719 C 44.722656 34.851562 44.851562 35.195312 44.972656 35.542969 C 45.042969 35.742188 45.109375 35.945312 45.175781 36.144531 C 45.273438 36.449219 45.367188 36.75 45.453125 37.054688 C 45.523438 37.300781 45.585938 37.542969 45.648438 37.785156 C 45.71875 38.066406 45.785156 38.347656 45.847656 38.628906 C 45.898438 38.875 45.949219 39.128906 45.996094 39.378906 C 46.253906 40.820312 46.328125 42.246094 46.394531 43.746094 L 46.429688 44.527344 C 46.449219 44.933594 46.785156 45.253906 47.191406 45.253906 C 47.59375 45.253906 47.214844 45.253906 47.226562 45.253906 C 47.648438 45.234375 47.972656 44.875 47.953125 44.453125 C 47.933594 44.105469 47.921875 43.761719 47.90625 43.417969 C 47.859375 42.175781 47.8125 40.890625 47.59375 39.59375 C 47.566406 39.4375 47.527344 39.277344 47.496094 39.121094 C 47.472656 38.980469 47.457031 38.839844 47.425781 38.695312 C 47.398438 38.558594 47.359375 38.421875 47.332031 38.285156 C 47.269531 38 47.199219 37.71875 47.128906 37.4375 C 47.0625 37.164062 46.988281 36.890625 46.910156 36.621094 C 46.824219 36.3125 46.730469 36.003906 46.628906 35.699219 C 46.554688 35.472656 46.480469 35.25 46.402344 35.027344 C 46.277344 34.667969 46.144531 34.316406 46.003906 33.960938 C 45.9375 33.800781 45.875 33.640625 45.808594 33.484375 C 45.734375 33.300781 45.667969 33.113281 45.585938 32.933594 C 45.484375 32.703125 45.367188 32.480469 45.257812 32.253906 C 45.21875 32.167969 45.175781 32.078125 45.132812 31.992188 C 44.910156 31.53125 44.671875 31.074219 44.421875 30.625 C 44.402344 30.59375 44.382812 30.558594 44.367188 30.527344 C 42.6875 27.546875 40.472656 24.875 37.847656 22.671875 Z M 37.847656 22.675781 " fill-opacity="1" fill-rule="nonzero"/><path fill="#e6ecf0" d="M 21.921875 69.371094 C 21.976562 69.332031 22.027344 69.292969 22.082031 69.257812 C 22.207031 69.171875 22.335938 69.09375 22.457031 69.007812 C 22.636719 68.886719 22.8125 68.75 22.988281 68.613281 C 23.226562 68.4375 23.476562 68.273438 23.710938 68.097656 C 23.800781 68.027344 23.917969 67.917969 24.054688 67.792969 C 24.070312 67.777344 24.089844 67.753906 24.109375 67.738281 C 24.230469 67.652344 24.347656 67.566406 24.480469 67.488281 C 24.507812 67.484375 24.59375 67.496094 24.667969 67.503906 L 24.832031 67.515625 C 26.070312 67.609375 27.304688 67.589844 28.519531 67.464844 C 28.691406 67.453125 28.863281 67.441406 29.035156 67.417969 C 35.375 66.652344 41.207031 62.957031 44.644531 57.527344 C 45.828125 55.660156 46.703125 53.617188 47.261719 51.488281 C 47.273438 51.445312 47.289062 51.398438 47.300781 51.351562 C 47.34375 51.179688 47.382812 51 47.421875 50.828125 C 47.476562 50.585938 47.53125 50.335938 47.582031 50.089844 C 47.609375 49.9375 47.636719 49.78125 47.664062 49.628906 C 47.714844 49.34375 47.753906 49.0625 47.792969 48.777344 C 47.808594 48.644531 47.828125 48.519531 47.839844 48.386719 C 47.886719 47.972656 47.925781 47.558594 47.945312 47.140625 C 47.964844 46.71875 47.640625 46.363281 47.222656 46.339844 C 46.808594 46.3125 46.445312 46.640625 46.421875 47.0625 C 46.402344 47.445312 46.367188 47.832031 46.328125 48.214844 C 46.3125 48.339844 46.296875 48.46875 46.277344 48.59375 C 46.246094 48.851562 46.207031 49.101562 46.164062 49.355469 C 46.136719 49.511719 46.109375 49.664062 46.082031 49.816406 C 46.042969 50.023438 45.996094 50.230469 45.949219 50.433594 C 45.027344 54.460938 42.847656 58.121094 39.613281 60.976562 C 36.363281 63.84375 32.433594 65.550781 28.296875 65.953125 C 27.59375 66 26.894531 65.988281 26.167969 65.972656 C 25.636719 65.960938 25.101562 65.949219 24.589844 65.960938 C 24.472656 65.9375 24.273438 65.894531 24.042969 65.957031 C 23.75 66.035156 23.484375 66.242188 23.171875 66.527344 C 22.902344 66.71875 22.644531 66.921875 22.394531 67.125 C 22.230469 67.261719 22.0625 67.382812 21.894531 67.511719 C 21.671875 67.671875 21.457031 67.835938 21.226562 67.988281 C 21.128906 68.054688 21.03125 68.117188 20.929688 68.183594 C 20.378906 68.546875 19.816406 68.890625 19.238281 69.210938 C 19.152344 69.261719 19.0625 69.304688 18.976562 69.355469 C 18.367188 69.6875 17.753906 70.003906 17.128906 70.296875 C 16.839844 70.425781 16.675781 70.714844 16.683594 71.011719 C 16.6875 71.109375 16.710938 71.210938 16.753906 71.304688 C 16.882812 71.585938 17.160156 71.746094 17.445312 71.746094 C 17.734375 71.746094 17.660156 71.726562 17.765625 71.679688 C 18.421875 71.375 19.066406 71.042969 19.703125 70.695312 C 19.796875 70.644531 19.894531 70.59375 19.988281 70.539062 C 20.59375 70.203125 21.179688 69.839844 21.753906 69.46875 C 21.808594 69.433594 21.867188 69.402344 21.917969 69.367188 Z M 21.921875 69.371094 " fill-opacity="1" fill-rule="nonzero"/><path fill="#e6ecf0" d="M 17.296875 68.339844 C 17.578125 68.203125 17.855469 68.058594 18.132812 67.90625 C 18.25 67.84375 18.363281 67.78125 18.480469 67.714844 C 18.753906 67.5625 19.027344 67.402344 19.296875 67.238281 C 19.355469 67.199219 19.417969 67.167969 19.476562 67.132812 C 19.527344 67.101562 19.578125 67.066406 19.625 67.035156 C 19.886719 66.871094 20.144531 66.699219 20.402344 66.527344 C 20.511719 66.453125 20.625 66.378906 20.730469 66.300781 C 20.988281 66.125 21.238281 65.941406 21.492188 65.753906 C 21.570312 65.695312 21.648438 65.640625 21.726562 65.585938 C 21.75 65.566406 21.773438 65.542969 21.800781 65.523438 C 22.011719 65.363281 22.214844 65.195312 22.421875 65.027344 C 22.523438 64.945312 22.628906 64.871094 22.730469 64.785156 C 22.738281 64.777344 22.75 64.765625 22.765625 64.753906 C 22.796875 64.726562 22.832031 64.703125 22.863281 64.675781 C 22.949219 64.601562 23.058594 64.488281 23.175781 64.363281 C 23.246094 64.292969 23.351562 64.175781 23.4375 64.097656 C 23.464844 64.105469 23.496094 64.113281 23.523438 64.121094 C 23.636719 64.148438 23.746094 64.175781 23.828125 64.191406 C 24 64.214844 24.171875 64.222656 24.34375 64.242188 C 24.441406 64.261719 24.53125 64.277344 24.605469 64.285156 C 24.734375 64.296875 24.855469 64.296875 24.984375 64.308594 C 25.101562 64.316406 25.21875 64.335938 25.335938 64.34375 C 25.445312 64.351562 25.554688 64.34375 25.664062 64.347656 C 25.796875 64.355469 25.9375 64.371094 26.066406 64.375 C 26.3125 64.378906 26.558594 64.375 26.804688 64.367188 C 26.902344 64.367188 27 64.367188 27.101562 64.363281 C 27.515625 64.347656 27.933594 64.316406 28.347656 64.269531 C 28.53125 64.25 28.71875 64.230469 28.90625 64.203125 C 29.304688 64.148438 29.707031 64.082031 30.101562 64.003906 C 30.265625 63.96875 30.425781 63.929688 30.59375 63.890625 C 30.957031 63.808594 31.320312 63.710938 31.675781 63.605469 C 31.746094 63.585938 31.816406 63.570312 31.882812 63.550781 C 31.910156 63.542969 31.9375 63.53125 31.964844 63.523438 C 32.164062 63.460938 32.363281 63.390625 32.5625 63.316406 C 32.671875 63.277344 32.785156 63.246094 32.894531 63.203125 C 33.214844 63.082031 33.53125 62.957031 33.839844 62.816406 C 35.945312 61.886719 37.832031 60.558594 39.429688 58.949219 C 41.277344 57.089844 42.742188 54.84375 43.660156 52.339844 C 43.769531 52.046875 43.867188 51.753906 43.957031 51.453125 C 44.070312 51.082031 44.179688 50.703125 44.269531 50.320312 C 44.597656 48.964844 44.71875 47.617188 44.757812 46.117188 C 44.769531 45.753906 44.777344 45.386719 44.777344 45.003906 C 44.777344 44.621094 44.777344 44.953125 44.777344 44.929688 C 44.777344 44.886719 44.777344 44.847656 44.777344 44.804688 C 44.777344 42.558594 44.527344 40.414062 44.042969 38.382812 C 44.003906 38.214844 43.972656 38.050781 43.933594 37.886719 C 43.914062 37.816406 43.890625 37.75 43.871094 37.679688 C 43.542969 36.449219 43.128906 35.261719 42.617188 34.117188 C 42.445312 33.734375 41.992188 33.566406 41.609375 33.734375 C 41.226562 33.90625 41.054688 34.359375 41.226562 34.742188 C 41.398438 35.121094 41.554688 35.5 41.699219 35.886719 C 41.820312 36.207031 41.933594 36.53125 42.039062 36.855469 C 42.0625 36.929688 42.089844 36.996094 42.113281 37.066406 C 42.175781 37.273438 42.234375 37.484375 42.292969 37.6875 C 42.351562 37.894531 42.414062 38.089844 42.46875 38.296875 C 42.484375 38.363281 42.496094 38.425781 42.511719 38.492188 C 43 40.488281 43.25 42.617188 43.253906 44.929688 C 43.253906 45.3125 43.25 45.683594 43.238281 46.042969 C 43.179688 47.960938 42.941406 49.546875 42.5 51.003906 C 41.660156 53.707031 40.136719 56.148438 38.128906 58.101562 C 38.09375 58.136719 38.058594 58.171875 38.023438 58.207031 C 38.023438 58.210938 38.019531 58.210938 38.019531 58.214844 C 36.402344 59.753906 34.480469 60.972656 32.371094 61.773438 C 31.980469 61.921875 31.578125 62.050781 31.175781 62.167969 C 30.882812 62.253906 30.589844 62.328125 30.292969 62.402344 C 30.117188 62.441406 29.945312 62.484375 29.773438 62.519531 C 29.421875 62.589844 29.066406 62.648438 28.710938 62.695312 C 28.535156 62.71875 28.359375 62.738281 28.183594 62.757812 C 27.792969 62.796875 27.40625 62.828125 27.015625 62.84375 C 26.941406 62.847656 26.871094 62.84375 26.796875 62.84375 C 26.445312 62.851562 26.089844 62.84375 25.734375 62.828125 C 25.523438 62.816406 25.308594 62.804688 25.09375 62.789062 C 24.921875 62.773438 24.75 62.753906 24.574219 62.734375 C 24.511719 62.71875 24.445312 62.703125 24.375 62.6875 C 24.003906 62.597656 23.625 62.519531 23.277344 62.546875 C 23.203125 62.550781 23.128906 62.5625 23.054688 62.582031 C 23.046875 62.582031 23.039062 62.582031 23.03125 62.585938 C 22.980469 62.601562 22.929688 62.632812 22.882812 62.652344 C 22.839844 62.671875 22.796875 62.683594 22.757812 62.707031 C 22.46875 62.871094 22.214844 63.136719 21.988281 63.378906 C 21.910156 63.457031 21.839844 63.535156 21.78125 63.589844 C 21.667969 63.683594 21.550781 63.773438 21.4375 63.867188 C 21.253906 64.019531 21.070312 64.167969 20.882812 64.3125 C 20.78125 64.390625 20.675781 64.464844 20.574219 64.539062 C 20.34375 64.714844 20.105469 64.886719 19.867188 65.054688 C 19.761719 65.125 19.660156 65.191406 19.554688 65.261719 C 19.3125 65.425781 19.070312 65.585938 18.824219 65.742188 C 18.71875 65.804688 18.609375 65.871094 18.503906 65.9375 C 18.25 66.089844 17.996094 66.238281 17.738281 66.382812 C 17.628906 66.445312 17.515625 66.507812 17.40625 66.566406 C 17.148438 66.707031 16.882812 66.84375 16.621094 66.976562 C 16.507812 67.035156 16.398438 67.09375 16.28125 67.148438 C 16.007812 67.277344 15.730469 67.402344 15.453125 67.53125 C 15.347656 67.574219 15.246094 67.625 15.136719 67.671875 C 14.753906 67.835938 14.367188 67.992188 13.980469 68.136719 C 13.589844 68.285156 13.386719 68.722656 13.535156 69.121094 C 13.648438 69.425781 13.9375 69.613281 14.25 69.613281 C 14.558594 69.613281 14.429688 69.597656 14.515625 69.5625 C 14.929688 69.410156 15.335938 69.246094 15.738281 69.070312 C 15.847656 69.023438 15.960938 68.96875 16.070312 68.921875 C 16.363281 68.789062 16.660156 68.65625 16.949219 68.515625 C 17.066406 68.460938 17.1875 68.398438 17.304688 68.339844 Z M 17.296875 68.339844 " fill-opacity="1" fill-rule="nonzero"/><path fill="#e6ecf0" d="M 3.945312 27.59375 C 5.351562 26.222656 6.925781 25.035156 8.625 24.058594 C 13.4375 21.296875 19.046875 20.328125 24.421875 21.332031 C 31.035156 22.570312 37.117188 26.898438 39.910156 32.347656 C 40.042969 32.613281 40.3125 32.765625 40.585938 32.765625 C 40.863281 32.765625 40.824219 32.738281 40.933594 32.679688 C 41.304688 32.488281 41.457031 32.03125 41.265625 31.65625 C 38.261719 25.796875 31.761719 21.15625 24.699219 19.835938 C 18.972656 18.765625 12.992188 19.792969 7.863281 22.738281 C 6.054688 23.777344 4.378906 25.046875 2.882812 26.503906 C 2.578125 26.796875 2.574219 27.28125 2.871094 27.582031 C 3.160156 27.882812 3.644531 27.886719 3.945312 27.59375 Z M 3.945312 27.59375 " fill-opacity="1" fill-rule="nonzero"/><path fill="#e6ecf0" d="M 14.296875 66.210938 C 14.355469 66.1875 14.414062 66.15625 14.472656 66.132812 C 14.574219 66.089844 14.675781 66.042969 14.777344 65.996094 C 15.109375 65.851562 15.441406 65.695312 15.769531 65.53125 C 15.859375 65.484375 15.953125 65.441406 16.042969 65.394531 C 16.433594 65.191406 16.824219 64.984375 17.203125 64.765625 C 17.214844 64.757812 17.222656 64.75 17.234375 64.746094 C 18.050781 64.269531 18.835938 63.746094 19.59375 63.1875 C 19.671875 63.125 19.75 63.066406 19.828125 63.007812 C 20.113281 62.789062 20.394531 62.5625 20.671875 62.328125 C 20.761719 62.253906 20.851562 62.183594 20.9375 62.109375 C 21.273438 61.820312 21.605469 61.523438 21.929688 61.210938 C 21.933594 61.207031 21.9375 61.203125 21.941406 61.199219 C 22.246094 60.90625 22.253906 60.421875 21.960938 60.121094 C 21.667969 59.816406 21.1875 59.808594 20.882812 60.101562 C 20.859375 60.125 20.832031 60.148438 20.808594 60.167969 C 20.378906 60.578125 19.929688 60.96875 19.46875 61.339844 C 19.332031 61.453125 19.195312 61.566406 19.054688 61.675781 C 18.582031 62.039062 18.105469 62.394531 17.605469 62.722656 C 17.488281 62.800781 17.363281 62.871094 17.242188 62.949219 C 16.820312 63.214844 16.390625 63.46875 15.953125 63.710938 C 15.792969 63.800781 15.636719 63.886719 15.472656 63.972656 C 14.933594 64.25 14.382812 64.515625 13.8125 64.757812 C 13.046875 65.082031 12.261719 65.371094 11.464844 65.617188 C 11.300781 65.628906 11.140625 65.695312 11.011719 65.816406 C 10.746094 66.066406 10.714844 66.457031 10.898438 66.757812 C 10.917969 66.789062 10.9375 66.828125 10.960938 66.855469 C 10.96875 66.867188 10.972656 66.882812 10.980469 66.890625 C 10.996094 66.90625 11.015625 66.910156 11.027344 66.921875 C 11.082031 66.976562 11.140625 67.019531 11.207031 67.054688 C 11.234375 67.070312 11.265625 67.085938 11.296875 67.101562 C 11.367188 67.125 11.445312 67.140625 11.523438 67.144531 C 11.554688 67.148438 11.578125 67.160156 11.617188 67.160156 C 12.09375 67.160156 12.816406 66.878906 14.082031 66.308594 Z M 14.296875 66.210938 " fill-opacity="1" fill-rule="nonzero"/><path fill="#e6ecf0" d="M 40.054688 45.984375 C 40.03125 48.398438 39.402344 50.730469 38.253906 52.765625 C 38.246094 52.78125 38.234375 52.796875 38.230469 52.808594 C 38.011719 53.1875 37.78125 53.554688 37.53125 53.90625 C 37.484375 53.972656 37.433594 54.039062 37.386719 54.101562 C 37.152344 54.417969 36.910156 54.730469 36.652344 55.023438 C 36.589844 55.09375 36.523438 55.160156 36.460938 55.234375 C 36.195312 55.523438 35.925781 55.800781 35.636719 56.066406 C 35.601562 56.097656 35.5625 56.128906 35.53125 56.164062 C 34.417969 57.160156 33.15625 57.957031 31.792969 58.53125 C 31.777344 58.539062 31.765625 58.542969 31.75 58.550781 C 31.3125 58.734375 30.863281 58.894531 30.402344 59.03125 C 30.363281 59.042969 30.320312 59.054688 30.28125 59.066406 C 29.855469 59.191406 29.417969 59.292969 28.976562 59.378906 C 28.910156 59.390625 28.84375 59.402344 28.777344 59.414062 C 28.367188 59.488281 27.945312 59.535156 27.523438 59.574219 C 27.433594 59.582031 27.34375 59.59375 27.253906 59.597656 C 26.84375 59.625 26.433594 59.628906 26.019531 59.621094 C 25.917969 59.621094 25.820312 59.625 25.722656 59.621094 C 25.21875 59.601562 24.710938 59.5625 24.203125 59.488281 C 23.789062 59.429688 23.40625 59.722656 23.34375 60.136719 C 23.285156 60.554688 23.578125 60.941406 23.992188 60.996094 C 24 60.996094 24 60.996094 24.003906 60.996094 C 24.175781 61.019531 24.347656 61.035156 24.519531 61.050781 C 24.730469 61.074219 24.9375 61.101562 25.144531 61.117188 C 25.535156 61.144531 25.925781 61.160156 26.316406 61.160156 C 26.703125 61.160156 27.25 61.132812 27.710938 61.09375 C 27.722656 61.09375 27.734375 61.089844 27.746094 61.085938 C 28.203125 61.046875 28.65625 60.984375 29.101562 60.902344 C 29.128906 60.898438 29.152344 60.894531 29.175781 60.890625 C 29.621094 60.808594 30.0625 60.707031 30.496094 60.585938 C 30.503906 60.585938 30.511719 60.582031 30.519531 60.582031 C 32.234375 60.109375 33.851562 59.351562 35.292969 58.308594 C 35.355469 58.261719 35.414062 58.214844 35.476562 58.167969 C 35.515625 58.136719 35.554688 58.105469 35.59375 58.078125 C 35.90625 57.839844 36.210938 57.589844 36.5 57.328125 C 36.53125 57.296875 36.574219 57.269531 36.605469 57.238281 C 36.628906 57.21875 36.648438 57.195312 36.671875 57.171875 C 36.984375 56.886719 37.277344 56.582031 37.5625 56.269531 C 37.640625 56.1875 37.71875 56.105469 37.792969 56.023438 C 38.074219 55.703125 38.335938 55.363281 38.589844 55.019531 C 38.652344 54.9375 38.710938 54.855469 38.769531 54.773438 C 39.039062 54.394531 39.289062 54 39.523438 53.597656 C 39.542969 53.5625 39.5625 53.53125 39.582031 53.496094 C 40.757812 51.425781 41.457031 49.085938 41.558594 46.679688 C 41.570312 46.453125 41.5625 46.234375 41.570312 46.007812 C 41.570312 45.972656 41.574219 45.9375 41.574219 45.90625 L 41.574219 45.601562 C 41.574219 45.253906 41.582031 44.90625 41.574219 44.566406 L 41.574219 44.296875 C 41.566406 42.34375 41.273438 40.425781 40.757812 38.578125 C 40.277344 36.738281 39.59375 35.023438 38.691406 33.449219 C 36.9375 30.394531 34.496094 27.859375 31.617188 26 C 31.601562 25.992188 31.585938 25.980469 31.570312 25.972656 C 31.144531 25.699219 30.714844 25.433594 30.269531 25.191406 C 30.085938 25.089844 29.894531 24.996094 29.703125 24.902344 C 29.394531 24.746094 29.085938 24.582031 28.769531 24.441406 C 28.234375 24.199219 27.6875 23.976562 27.128906 23.78125 C 26.730469 23.640625 26.296875 23.851562 26.15625 24.25 C 26.019531 24.644531 26.226562 25.082031 26.625 25.21875 C 27.148438 25.40625 27.667969 25.617188 28.175781 25.847656 C 28.335938 25.917969 28.488281 26.003906 28.648438 26.078125 C 28.988281 26.242188 29.324219 26.414062 29.65625 26.597656 C 29.871094 26.71875 30.078125 26.847656 30.285156 26.976562 C 30.53125 27.125 30.773438 27.277344 31.011719 27.4375 C 31.292969 27.625 31.5625 27.820312 31.832031 28.019531 C 31.957031 28.109375 32.078125 28.207031 32.199219 28.300781 C 35.582031 30.964844 38.082031 34.714844 39.273438 38.90625 C 39.742188 40.671875 40.003906 42.570312 40.050781 44.59375 L 40.050781 45.667969 C 40.050781 45.773438 40.050781 45.878906 40.046875 45.984375 Z M 40.054688 45.984375 " fill-opacity="1" fill-rule="nonzero"/><path fill="#e6ecf0" d="M 1.625 31.191406 C 1.703125 31.234375 1.78125 31.277344 1.859375 31.324219 C 2.128906 31.480469 2.433594 31.660156 2.804688 31.746094 C 2.996094 31.792969 3.175781 31.8125 3.34375 31.8125 C 4.34375 31.8125 5.003906 31.109375 5.539062 30.535156 C 6.558594 29.441406 7.710938 28.460938 8.957031 27.617188 C 13.511719 24.53125 19.292969 23.347656 24.042969 24.519531 C 24.453125 24.617188 24.867188 24.375 24.96875 23.964844 C 25.066406 23.558594 24.820312 23.140625 24.410156 23.042969 C 19.253906 21.765625 13.003906 23.035156 8.105469 26.355469 C 6.761719 27.261719 5.523438 28.320312 4.382812 29.542969 C 3.816406 30.144531 3.566406 30.363281 3.152344 30.265625 C 3.007812 30.230469 2.820312 30.125 2.625 30.007812 C 2.53125 29.953125 2.433594 29.894531 2.339844 29.847656 C 1.96875 29.648438 1.507812 29.789062 1.308594 30.160156 C 1.109375 30.53125 1.253906 30.992188 1.621094 31.191406 Z M 1.625 31.191406 " fill-opacity="1" fill-rule="nonzero"/><path fill="#e6ecf0" d="M 21.308594 57.191406 C 21.378906 57.109375 21.484375 56.984375 21.570312 56.882812 C 21.820312 57.019531 22.210938 57.230469 22.820312 57.425781 C 26.617188 58.636719 30.871094 57.832031 33.917969 55.324219 C 36.191406 53.457031 37.574219 50.9375 38.269531 47.394531 C 38.351562 46.980469 38.082031 46.578125 37.667969 46.5 C 37.25 46.414062 36.855469 46.6875 36.773438 47.101562 C 36.148438 50.277344 34.933594 52.515625 32.949219 54.148438 C 30.296875 56.328125 26.589844 57.027344 23.277344 55.972656 C 22.761719 55.808594 22.46875 55.640625 22.25 55.519531 C 21.207031 54.929688 20.777344 55.445312 20.132812 56.21875 C 18.164062 58.585938 15.597656 60.503906 12.71875 61.757812 C 11.914062 62.105469 11.082031 62.40625 10.257812 62.644531 C 10.210938 62.65625 10.136719 62.667969 10.050781 62.683594 C 9.375 62.804688 8.886719 62.890625 8.671875 63.304688 C 8.523438 63.5625 8.535156 63.933594 8.707031 64.171875 C 8.855469 64.382812 9.089844 64.492188 9.328125 64.492188 C 9.566406 64.492188 9.636719 64.445312 9.769531 64.355469 C 9.800781 64.328125 9.835938 64.300781 9.867188 64.273438 C 10.007812 64.238281 10.210938 64.203125 10.316406 64.183594 C 10.476562 64.15625 10.609375 64.128906 10.664062 64.113281 C 11.566406 63.851562 12.460938 63.53125 13.324219 63.15625 C 16.421875 61.808594 19.179688 59.746094 21.300781 57.195312 Z M 21.308594 57.191406 " fill-opacity="1" fill-rule="nonzero"/><g clip-path="url(#b722d8b538)"><path fill="#e6ecf0" d="M 1.648438 34.996094 C 2.410156 35.582031 3.351562 36.316406 4.714844 35.910156 C 5.707031 35.613281 6.277344 34.789062 6.734375 34.125 C 6.871094 33.925781 7.007812 33.726562 7.152344 33.550781 C 7.945312 32.582031 8.851562 31.695312 9.855469 30.917969 C 16.519531 25.742188 25.992188 26.304688 31.886719 32.222656 C 35.105469 35.460938 36.875 39.816406 36.863281 44.492188 C 36.863281 44.914062 37.203125 45.253906 37.621094 45.253906 C 38.042969 45.253906 38.382812 44.914062 38.382812 44.496094 C 38.394531 39.414062 36.46875 34.671875 32.960938 31.148438 C 26.523438 24.6875 16.1875 24.070312 8.917969 29.710938 C 7.824219 30.558594 6.832031 31.527344 5.96875 32.585938 C 5.800781 32.796875 5.636719 33.027344 5.476562 33.257812 C 5.109375 33.796875 4.757812 34.308594 4.277344 34.449219 C 3.691406 34.628906 3.292969 34.34375 2.585938 33.792969 C 2.402344 33.648438 2.21875 33.507812 2.027344 33.378906 C 1.679688 33.140625 1.207031 33.226562 0.96875 33.570312 C 0.730469 33.917969 0.816406 34.394531 1.160156 34.632812 C 1.328125 34.746094 1.488281 34.871094 1.648438 34.996094 Z M 1.648438 34.996094 " fill-opacity="1" fill-rule="nonzero"/></g><g clip-path="url(#237b6ab3b2)"><path fill="#e6ecf0" d="M 2.472656 42.859375 C 2.507812 43.65625 2.558594 44.742188 3.550781 45.410156 C 4.175781 45.839844 4.863281 45.902344 5.476562 45.59375 C 6.351562 45.152344 6.777344 44.136719 6.8125 43.320312 C 6.976562 39.398438 8.605469 36.0625 11.53125 33.664062 C 16.183594 29.855469 22.828125 29.519531 27.679688 32.851562 C 30.304688 34.652344 32.238281 37.339844 33.128906 40.40625 C 33.605469 42.058594 33.664062 43.734375 33.664062 45.074219 C 33.664062 46.417969 33.664062 46.960938 33.4375 47.84375 C 32.75 50.5 30.574219 52.574219 27.890625 53.121094 C 27.476562 53.207031 27.214844 53.609375 27.296875 54.019531 C 27.371094 54.382812 27.6875 54.628906 28.042969 54.628906 C 28.398438 54.628906 28.144531 54.625 28.195312 54.613281 C 31.445312 53.945312 34.085938 51.4375 34.910156 48.222656 C 35.1875 47.152344 35.1875 46.097656 35.1875 45.007812 C 35.1875 43.917969 35.121094 41.816406 34.589844 39.984375 C 33.601562 36.578125 31.457031 33.597656 28.542969 31.597656 C 23.132812 27.878906 15.742188 28.25 10.566406 32.488281 C 7.296875 35.167969 5.472656 38.890625 5.289062 43.253906 C 5.269531 43.703125 5.015625 44.121094 4.792969 44.234375 C 4.746094 44.257812 4.636719 44.308594 4.402344 44.152344 C 4.078125 43.933594 4.03125 43.550781 3.992188 42.789062 C 3.980469 42.539062 3.96875 42.296875 3.941406 42.0625 C 3.726562 40.460938 3.070312 38.949219 2.042969 37.695312 C 1.777344 37.367188 1.296875 37.320312 0.972656 37.585938 C 0.644531 37.851562 0.597656 38.332031 0.863281 38.65625 C 1.714844 39.695312 2.253906 40.941406 2.429688 42.261719 C 2.453125 42.453125 2.464844 42.65625 2.472656 42.855469 Z M 2.472656 42.859375 " fill-opacity="1" fill-rule="nonzero"/></g><path fill="#e6ecf0" d="M 20.625 52.578125 C 21.914062 53.722656 23.515625 54.46875 25.226562 54.703125 C 25.640625 54.765625 26.027344 54.472656 26.085938 54.054688 C 26.144531 53.636719 25.851562 53.253906 25.4375 53.195312 C 23.726562 52.960938 22.152344 52.109375 21.003906 50.804688 C 20.835938 50.613281 20.582031 50.519531 20.328125 50.550781 C 20.078125 50.585938 19.859375 50.742188 19.746094 50.972656 C 17.429688 55.746094 12.644531 59.226562 7.257812 60.050781 C 6.84375 60.117188 6.558594 60.503906 6.621094 60.921875 C 6.679688 61.296875 7.003906 61.566406 7.371094 61.566406 C 7.742188 61.566406 7.449219 61.5625 7.488281 61.554688 C 13.003906 60.710938 17.945312 57.308594 20.625 52.574219 Z M 20.625 52.578125 " fill-opacity="1" fill-rule="nonzero"/><path fill="#e6ecf0" d="M 7.328125 58.335938 C 7.695312 58.269531 8.0625 58.195312 8.421875 58.105469 C 8.457031 58.09375 8.488281 58.085938 8.523438 58.078125 C 13.753906 56.714844 17.980469 52.664062 19.226562 47.523438 C 19.296875 47.234375 19.351562 46.941406 19.398438 46.652344 C 19.445312 46.402344 19.46875 46.144531 19.5 45.890625 C 19.5 45.871094 19.503906 45.851562 19.507812 45.832031 C 19.527344 45.648438 19.5625 45.46875 19.574219 45.28125 C 19.585938 45.113281 19.589844 44.933594 19.59375 44.75 C 19.609375 43.949219 19.660156 43.582031 19.902344 43.421875 C 19.945312 43.394531 19.992188 43.375 20.039062 43.359375 C 20.121094 43.332031 20.203125 43.324219 20.277344 43.332031 C 20.289062 43.332031 20.300781 43.339844 20.316406 43.339844 C 20.382812 43.351562 20.449219 43.371094 20.507812 43.40625 C 20.507812 43.40625 20.511719 43.410156 20.515625 43.410156 C 20.574219 43.449219 20.625 43.496094 20.671875 43.550781 C 20.691406 43.574219 20.710938 43.601562 20.730469 43.628906 C 20.75 43.65625 20.765625 43.683594 20.777344 43.714844 C 20.875 43.9375 20.882812 44.242188 20.882812 44.660156 L 20.882812 45.179688 C 20.875 45.460938 20.875 45.742188 20.882812 46.019531 C 20.886719 46.300781 20.921875 46.585938 20.96875 46.863281 C 21.042969 47.382812 21.171875 47.914062 21.429688 48.441406 C 21.972656 49.570312 22.882812 50.445312 23.988281 50.976562 C 24.113281 51.042969 24.242188 51.097656 24.367188 51.152344 C 24.386719 51.160156 24.40625 51.167969 24.421875 51.171875 C 25.757812 51.722656 27.234375 51.726562 28.597656 51.148438 C 28.769531 51.074219 28.925781 50.984375 29.085938 50.898438 C 29.109375 50.886719 29.132812 50.875 29.15625 50.863281 C 29.316406 50.773438 29.464844 50.679688 29.613281 50.574219 C 29.6875 50.523438 29.761719 50.46875 29.835938 50.410156 C 29.945312 50.328125 30.050781 50.242188 30.152344 50.148438 C 30.355469 49.964844 30.550781 49.773438 30.722656 49.5625 C 32.042969 47.964844 32.019531 46.019531 32 44.304688 C 32 44.089844 31.996094 43.875 31.996094 43.65625 C 31.996094 43.234375 31.65625 42.894531 31.234375 42.894531 C 30.816406 42.894531 30.472656 43.238281 30.472656 43.65625 L 30.472656 45.398438 C 30.472656 46.519531 30.234375 47.898438 29.273438 48.886719 C 29.261719 48.898438 29.253906 48.910156 29.238281 48.921875 C 29.105469 49.054688 28.953125 49.179688 28.789062 49.292969 C 28.695312 49.359375 28.597656 49.421875 28.496094 49.480469 C 28.429688 49.519531 28.363281 49.554688 28.289062 49.589844 C 27.589844 49.945312 26.789062 50.09375 25.957031 49.992188 C 25.503906 49.9375 25.078125 49.804688 24.683594 49.617188 C 24.558594 49.554688 24.441406 49.488281 24.320312 49.414062 C 23.402344 48.816406 22.765625 47.894531 22.519531 46.855469 C 22.414062 46.289062 22.402344 45.691406 22.402344 45.070312 C 22.402344 44.449219 22.40625 44.863281 22.40625 44.757812 C 22.421875 44.28125 22.4375 43.738281 22.230469 43.214844 C 22.214844 43.179688 22.195312 43.148438 22.183594 43.113281 C 22.144531 43.023438 22.097656 42.933594 22.042969 42.84375 C 22.039062 42.832031 22.03125 42.816406 22.019531 42.804688 C 21.933594 42.660156 21.828125 42.519531 21.695312 42.386719 C 21.332031 42.03125 20.855469 41.835938 20.363281 41.800781 C 20.316406 41.796875 20.265625 41.800781 20.214844 41.800781 C 20.140625 41.800781 20.066406 41.800781 19.988281 41.808594 C 19.929688 41.8125 19.875 41.828125 19.8125 41.839844 C 19.742188 41.851562 19.667969 41.867188 19.597656 41.890625 C 19.570312 41.898438 19.542969 41.898438 19.519531 41.90625 C 19.496094 41.917969 19.476562 41.929688 19.453125 41.9375 C 19.347656 41.980469 19.246094 42.03125 19.148438 42.089844 C 19.105469 42.113281 19.0625 42.132812 19.023438 42.15625 C 19.023438 42.15625 19.015625 42.164062 19.015625 42.164062 C 18.90625 42.242188 18.8125 42.320312 18.730469 42.40625 C 18.703125 42.4375 18.679688 42.46875 18.652344 42.496094 C 18.574219 42.585938 18.507812 42.679688 18.449219 42.777344 C 18.449219 42.78125 18.445312 42.785156 18.441406 42.789062 C 18.160156 43.269531 18.09375 43.8125 18.078125 44.234375 C 18.066406 44.695312 18.039062 45.171875 17.992188 45.65625 C 17.992188 45.667969 17.988281 45.683594 17.984375 45.699219 C 17.960938 45.925781 17.933594 46.148438 17.898438 46.378906 C 17.035156 51.21875 13.101562 55.277344 8.136719 56.59375 C 8.105469 56.597656 8.070312 56.609375 8.039062 56.617188 C 7.71875 56.703125 7.390625 56.769531 7.0625 56.828125 C 6.996094 56.839844 6.925781 56.855469 6.855469 56.867188 C 6.472656 56.929688 6.082031 56.976562 5.6875 57.007812 C 5.269531 57.035156 4.957031 57.402344 4.984375 57.820312 C 5.015625 58.222656 5.347656 58.527344 5.742188 58.527344 C 6.136719 58.527344 5.78125 58.527344 5.800781 58.527344 C 6.238281 58.496094 6.667969 58.441406 7.097656 58.375 C 7.175781 58.359375 7.25 58.34375 7.324219 58.328125 Z M 7.328125 58.335938 " fill-opacity="1" fill-rule="nonzero"/><path fill="#e6ecf0" d="M 23.042969 32.558594 C 22.757812 32.488281 22.472656 32.421875 22.183594 32.375 C 22.066406 32.355469 21.945312 32.34375 21.828125 32.328125 C 21.636719 32.300781 21.441406 32.273438 21.246094 32.257812 C 16.546875 31.855469 11.890625 34.320312 9.683594 38.484375 C 9.636719 38.578125 9.609375 38.675781 9.597656 38.773438 C 9.574219 39.070312 9.722656 39.363281 10 39.511719 C 10.375 39.707031 10.832031 39.566406 11.027344 39.195312 C 13.042969 35.390625 17.628906 33.152344 21.925781 33.875 C 21.984375 33.886719 22.042969 33.902344 22.105469 33.914062 C 25.796875 34.621094 28.980469 37.558594 30.050781 41.289062 C 30.148438 41.621094 30.453125 41.839844 30.785156 41.839844 C 31.113281 41.839844 30.921875 41.832031 30.996094 41.8125 C 31.398438 41.695312 31.632812 41.273438 31.515625 40.871094 C 30.328125 36.75 27.054688 33.570312 23.039062 32.558594 Z M 23.042969 32.558594 " fill-opacity="1" fill-rule="nonzero"/><path fill="#e6ecf0" d="M 8.171875 47.75 C 9.761719 46.410156 9.875 44.644531 9.976562 43.085938 C 10.011719 42.566406 10.046875 42.03125 10.132812 41.523438 C 10.203125 41.109375 9.921875 40.71875 9.511719 40.644531 C 9.089844 40.574219 8.703125 40.855469 8.632812 41.265625 C 8.53125 41.851562 8.492188 42.429688 8.457031 42.988281 C 8.363281 44.421875 8.28125 45.660156 7.191406 46.585938 C 6.046875 47.550781 4.1875 47.726562 2.777344 47 C 2.402344 46.808594 1.941406 46.953125 1.75 47.324219 C 1.558594 47.699219 1.703125 48.160156 2.078125 48.351562 C 2.886719 48.769531 3.789062 48.972656 4.679688 48.972656 C 5.957031 48.972656 7.21875 48.554688 8.175781 47.746094 Z M 8.171875 47.75 " fill-opacity="1" fill-rule="nonzero"/><path fill="#e6ecf0" d="M 14.101562 50.835938 C 14.363281 50.507812 14.304688 50.027344 13.972656 49.765625 C 13.640625 49.507812 13.164062 49.566406 12.902344 49.894531 C 10.890625 52.453125 7.707031 53.925781 4.417969 53.84375 C 3.992188 53.84375 3.648438 54.164062 3.636719 54.585938 C 3.628906 55.003906 3.960938 55.355469 4.378906 55.363281 C 4.480469 55.363281 4.582031 55.371094 4.683594 55.371094 C 8.355469 55.371094 11.855469 53.6875 14.101562 50.835938 Z M 14.101562 50.835938 " fill-opacity="1" fill-rule="nonzero"/><path fill="#e6ecf0" d="M 12.449219 47.210938 C 12.859375 46.257812 13.105469 45.191406 13.179688 44.054688 C 13.195312 43.851562 13.203125 43.648438 13.210938 43.449219 C 13.238281 42.824219 13.261719 42.234375 13.441406 41.667969 C 13.820312 40.46875 14.632812 39.339844 15.738281 38.484375 C 18.089844 36.664062 21.425781 36.449219 23.851562 37.960938 C 25.972656 39.277344 27.246094 41.660156 27.265625 44.320312 L 27.273438 44.683594 C 27.285156 45.351562 27.308594 46.355469 26.964844 46.703125 C 26.925781 46.746094 26.804688 46.871094 26.429688 46.871094 C 26.058594 46.871094 25.851562 46.71875 25.746094 46.433594 C 25.59375 46.023438 25.59375 45.421875 25.59375 44.871094 L 25.59375 44.605469 C 25.597656 44.277344 25.597656 43.949219 25.570312 43.621094 C 25.359375 41.257812 23.660156 39.253906 21.4375 38.742188 C 18.832031 38.144531 16.175781 39.578125 15.253906 42.074219 C 14.957031 42.875 14.921875 43.636719 14.890625 44.371094 C 14.878906 44.671875 14.863281 44.976562 14.832031 45.285156 C 14.746094 46.058594 14.5 46.789062 14.222656 47.628906 C 14.089844 48.023438 14.316406 48.421875 14.714844 48.554688 C 15.113281 48.691406 15.554688 48.4375 15.6875 48.039062 C 15.960938 47.226562 16.242188 46.386719 16.34375 45.449219 C 16.382812 45.109375 16.398438 44.773438 16.414062 44.441406 C 16.441406 43.792969 16.46875 43.179688 16.683594 42.601562 C 17.339844 40.820312 19.238281 39.800781 21.09375 40.226562 C 22.683594 40.59375 23.902344 42.042969 24.054688 43.757812 C 24.078125 44.035156 24.074219 44.316406 24.074219 44.59375 L 24.074219 44.890625 C 24.074219 45.515625 24.074219 46.296875 24.320312 46.960938 C 24.660156 47.886719 25.410156 48.394531 26.433594 48.394531 C 27.453125 48.394531 27.652344 48.1875 28.058594 47.773438 C 28.847656 46.964844 28.820312 45.628906 28.796875 44.652344 L 28.792969 44.3125 C 28.769531 41.125 27.222656 38.265625 24.660156 36.667969 C 21.65625 34.792969 17.695312 35.042969 14.808594 37.28125 C 13.460938 38.324219 12.460938 39.722656 11.992188 41.210938 C 11.75 41.972656 11.71875 42.691406 11.691406 43.386719 C 11.683594 43.574219 11.675781 43.765625 11.664062 43.957031 C 11.597656 44.921875 11.390625 45.8125 11.050781 46.609375 C 9.839844 49.417969 6.640625 51.074219 3.429688 50.542969 C 3.015625 50.46875 2.621094 50.757812 2.554688 51.171875 C 2.484375 51.585938 2.765625 51.980469 3.179688 52.046875 C 3.683594 52.128906 4.179688 52.171875 4.671875 52.171875 C 8.058594 52.171875 11.128906 50.269531 12.449219 47.214844 Z M 12.449219 47.210938 " fill-opacity="1" fill-rule="nonzero"/></g></g></g></g><g transform="matrix(1, 0, 0, 1, 30, 23)"><g clip-path="url(#c379b1f9b5)"><g clip-path="url(#db76b6b78f)"><g transform="matrix(1, 0, 0, 1, 65, 0)"><g clip-path="url(#64ab730c47)"><g fill="#ffffff" fill-opacity="0.4"><g transform="translate(1.095886, 25.182884)"><g><path d="M 6.671875 -8.90625 L 6.671875 0 L 1.609375 0 L 1.609375 -22.203125 L 6.671875 -22.203125 L 6.671875 -13.359375 L 13.84375 -13.359375 L 13.84375 -22.203125 L 18.90625 -22.203125 L 18.90625 0 L 13.84375 0 L 13.84375 -8.90625 Z M 6.671875 -8.90625 "/></g></g></g><g fill="#ffffff" fill-opacity="0.4"><g transform="translate(21.615465, 25.182884)"><g><path d="M 6.109375 -13.8125 L 6.109375 -7.234375 C 6.109375 -5.878906 6.3125 -4.910156 6.71875 -4.328125 C 7.132812 -3.753906 7.835938 -3.46875 8.828125 -3.46875 C 9.816406 -3.46875 10.515625 -3.753906 10.921875 -4.328125 C 11.335938 -4.910156 11.546875 -5.878906 11.546875 -7.234375 L 11.546875 -13.8125 L 16.3125 -13.8125 L 16.3125 -6.078125 C 16.3125 -3.785156 15.710938 -2.128906 14.515625 -1.109375 C 13.328125 -0.0976562 11.429688 0.40625 8.828125 0.40625 C 6.222656 0.40625 4.320312 -0.0976562 3.125 -1.109375 C 1.9375 -2.128906 1.34375 -3.785156 1.34375 -6.078125 L 1.34375 -13.8125 Z M 6.109375 -13.8125 "/></g></g></g><g fill="#ffffff" fill-opacity="0.4"><g transform="translate(39.280615, 25.182884)"><g><path d="M 1.609375 0 L 1.609375 -13.8125 L 6.375 -13.8125 L 6.375 -12.359375 L 6.4375 -12.359375 C 7.675781 -13.597656 8.992188 -14.21875 10.390625 -14.21875 C 11.078125 -14.21875 11.753906 -14.125 12.421875 -13.9375 C 13.097656 -13.757812 13.742188 -13.484375 14.359375 -13.109375 C 14.984375 -12.734375 15.488281 -12.195312 15.875 -11.5 C 16.257812 -10.8125 16.453125 -10.007812 16.453125 -9.09375 L 16.453125 0 L 11.6875 0 L 11.6875 -7.8125 C 11.6875 -8.53125 11.457031 -9.15625 11 -9.6875 C 10.539062 -10.226562 9.941406 -10.5 9.203125 -10.5 C 8.484375 -10.5 7.832031 -10.21875 7.25 -9.65625 C 6.664062 -9.101562 6.375 -8.488281 6.375 -7.8125 L 6.375 0 Z M 1.609375 0 "/></g></g></g><g fill="#ffffff" fill-opacity="0.4"><g transform="translate(57.080404, 25.182884)"><g><path d="M 2.421875 -13.8125 L 2.421875 -18.953125 L 7.1875 -18.953125 L 7.1875 -13.8125 L 10.09375 -13.8125 L 10.09375 -10.171875 L 7.1875 -10.171875 L 7.1875 -5.78125 C 7.1875 -4.507812 7.546875 -3.875 8.265625 -3.875 C 8.441406 -3.875 8.628906 -3.910156 8.828125 -3.984375 C 9.023438 -4.054688 9.175781 -4.128906 9.28125 -4.203125 L 9.453125 -4.3125 L 10.640625 -0.453125 C 9.609375 0.117188 8.441406 0.40625 7.140625 0.40625 C 6.234375 0.40625 5.457031 0.25 4.8125 -0.0625 C 4.164062 -0.375 3.675781 -0.796875 3.34375 -1.328125 C 3.019531 -1.859375 2.785156 -2.414062 2.640625 -3 C 2.492188 -3.582031 2.421875 -4.207031 2.421875 -4.875 L 2.421875 -10.171875 L 0.4375 -10.171875 L 0.4375 -13.8125 Z M 2.421875 -13.8125 "/></g></g></g><g fill="#ffffff" fill-opacity="0.4"><g transform="translate(67.717192, 25.182884)"><g><path d="M 15.59375 -6.25 L 5.578125 -6.25 C 5.578125 -5.28125 5.890625 -4.5625 6.515625 -4.09375 C 7.140625 -3.625 7.820312 -3.390625 8.5625 -3.390625 C 9.332031 -3.390625 9.941406 -3.492188 10.390625 -3.703125 C 10.835938 -3.910156 11.347656 -4.316406 11.921875 -4.921875 L 15.375 -3.203125 C 13.9375 -0.796875 11.550781 0.40625 8.21875 0.40625 C 6.132812 0.40625 4.347656 -0.304688 2.859375 -1.734375 C 1.367188 -3.160156 0.625 -4.878906 0.625 -6.890625 C 0.625 -8.898438 1.367188 -10.625 2.859375 -12.0625 C 4.347656 -13.5 6.132812 -14.21875 8.21875 -14.21875 C 10.40625 -14.21875 12.179688 -13.582031 13.546875 -12.3125 C 14.921875 -11.050781 15.609375 -9.242188 15.609375 -6.890625 C 15.609375 -6.566406 15.601562 -6.351562 15.59375 -6.25 Z M 5.703125 -8.890625 L 10.953125 -8.890625 C 10.847656 -9.609375 10.566406 -10.160156 10.109375 -10.546875 C 9.648438 -10.929688 9.0625 -11.125 8.34375 -11.125 C 7.550781 -11.125 6.921875 -10.914062 6.453125 -10.5 C 5.992188 -10.082031 5.742188 -9.546875 5.703125 -8.890625 Z M 5.703125 -8.890625 "/></g></g></g><g fill="#ffffff" fill-opacity="0.4"><g transform="translate(83.95512, 25.182884)"><g><path d="M 1.609375 0 L 1.609375 -13.8125 L 6.375 -13.8125 L 6.375 -11.8125 L 6.4375 -11.8125 C 6.46875 -11.882812 6.523438 -11.972656 6.609375 -12.078125 C 6.691406 -12.191406 6.863281 -12.382812 7.125 -12.65625 C 7.394531 -12.925781 7.679688 -13.164062 7.984375 -13.375 C 8.296875 -13.59375 8.691406 -13.785156 9.171875 -13.953125 C 9.660156 -14.128906 10.15625 -14.21875 10.65625 -14.21875 C 11.175781 -14.21875 11.6875 -14.144531 12.1875 -14 C 12.695312 -13.851562 13.066406 -13.707031 13.296875 -13.5625 L 13.671875 -13.359375 L 11.6875 -9.3125 C 11.09375 -9.8125 10.265625 -10.0625 9.203125 -10.0625 C 8.628906 -10.0625 8.132812 -9.9375 7.71875 -9.6875 C 7.3125 -9.4375 7.019531 -9.128906 6.84375 -8.765625 C 6.675781 -8.410156 6.554688 -8.109375 6.484375 -7.859375 C 6.410156 -7.609375 6.375 -7.410156 6.375 -7.265625 L 6.375 0 Z M 1.609375 0 "/></g></g></g><g fill="#ffffff" fill-opacity="1"><g transform="translate(1.095886, 25.182884)"><g><path d="M 6.671875 -8.90625 L 6.671875 0 L 1.609375 0 L 1.609375 -22.203125 L 6.671875 -22.203125 L 6.671875 -13.359375 L 13.84375 -13.359375 L 13.84375 -22.203125 L 18.90625 -22.203125 L 18.90625 0 L 13.84375 0 L 13.84375 -8.90625 Z M 6.671875 -8.90625 "/></g></g></g><g fill="#ffffff" fill-opacity="1"><g transform="translate(21.615465, 25.182884)"><g><path d="M 6.109375 -13.8125 L 6.109375 -7.234375 C 6.109375 -5.878906 6.3125 -4.910156 6.71875 -4.328125 C 7.132812 -3.753906 7.835938 -3.46875 8.828125 -3.46875 C 9.816406 -3.46875 10.515625 -3.753906 10.921875 -4.328125 C 11.335938 -4.910156 11.546875 -5.878906 11.546875 -7.234375 L 11.546875 -13.8125 L 16.3125 -13.8125 L 16.3125 -6.078125 C 16.3125 -3.785156 15.710938 -2.128906 14.515625 -1.109375 C 13.328125 -0.0976562 11.429688 0.40625 8.828125 0.40625 C 6.222656 0.40625 4.320312 -0.0976562 3.125 -1.109375 C 1.9375 -2.128906 1.34375 -3.785156 1.34375 -6.078125 L 1.34375 -13.8125 Z M 6.109375 -13.8125 "/></g></g></g><g fill="#ffffff" fill-opacity="1"><g transform="translate(39.280615, 25.182884)"><g><path d="M 1.609375 0 L 1.609375 -13.8125 L 6.375 -13.8125 L 6.375 -12.359375 L 6.4375 -12.359375 C 7.675781 -13.597656 8.992188 -14.21875 10.390625 -14.21875 C 11.078125 -14.21875 11.753906 -14.125 12.421875 -13.9375 C 13.097656 -13.757812 13.742188 -13.484375 14.359375 -13.109375 C 14.984375 -12.734375 15.488281 -12.195312 15.875 -11.5 C 16.257812 -10.8125 16.453125 -10.007812 16.453125 -9.09375 L 16.453125 0 L 11.6875 0 L 11.6875 -7.8125 C 11.6875 -8.53125 11.457031 -9.15625 11 -9.6875 C 10.539062 -10.226562 9.941406 -10.5 9.203125 -10.5 C 8.484375 -10.5 7.832031 -10.21875 7.25 -9.65625 C 6.664062 -9.101562 6.375 -8.488281 6.375 -7.8125 L 6.375 0 Z M 1.609375 0 "/></g></g></g><g fill="#ffffff" fill-opacity="1"><g transform="translate(57.080404, 25.182884)"><g><path d="M 2.421875 -13.8125 L 2.421875 -18.953125 L 7.1875 -18.953125 L 7.1875 -13.8125 L 10.09375 -13.8125 L 10.09375 -10.171875 L 7.1875 -10.171875 L 7.1875 -5.78125 C 7.1875 -4.507812 7.546875 -3.875 8.265625 -3.875 C 8.441406 -3.875 8.628906 -3.910156 8.828125 -3.984375 C 9.023438 -4.054688 9.175781 -4.128906 9.28125 -4.203125 L 9.453125 -4.3125 L 10.640625 -0.453125 C 9.609375 0.117188 8.441406 0.40625 7.140625 0.40625 C 6.234375 0.40625 5.457031 0.25 4.8125 -0.0625 C 4.164062 -0.375 3.675781 -0.796875 3.34375 -1.328125 C 3.019531 -1.859375 2.785156 -2.414062 2.640625 -3 C 2.492188 -3.582031 2.421875 -4.207031 2.421875 -4.875 L 2.421875 -10.171875 L 0.4375 -10.171875 L 0.4375 -13.8125 Z M 2.421875 -13.8125 "/></g></g></g><g fill="#ffffff" fill-opacity="1"><g transform="translate(67.717192, 25.182884)"><g><path d="M 15.59375 -6.25 L 5.578125 -6.25 C 5.578125 -5.28125 5.890625 -4.5625 6.515625 -4.09375 C 7.140625 -3.625 7.820312 -3.390625 8.5625 -3.390625 C 9.332031 -3.390625 9.941406 -3.492188 10.390625 -3.703125 C 10.835938 -3.910156 11.347656 -4.316406 11.921875 -4.921875 L 15.375 -3.203125 C 13.9375 -0.796875 11.550781 0.40625 8.21875 0.40625 C 6.132812 0.40625 4.347656 -0.304688 2.859375 -1.734375 C 1.367188 -3.160156 0.625 -4.878906 0.625 -6.890625 C 0.625 -8.898438 1.367188 -10.625 2.859375 -12.0625 C 4.347656 -13.5 6.132812 -14.21875 8.21875 -14.21875 C 10.40625 -14.21875 12.179688 -13.582031 13.546875 -12.3125 C 14.921875 -11.050781 15.609375 -9.242188 15.609375 -6.890625 C 15.609375 -6.566406 15.601562 -6.351562 15.59375 -6.25 Z M 5.703125 -8.890625 L 10.953125 -8.890625 C 10.847656 -9.609375 10.566406 -10.160156 10.109375 -10.546875 C 9.648438 -10.929688 9.0625 -11.125 8.34375 -11.125 C 7.550781 -11.125 6.921875 -10.914062 6.453125 -10.5 C 5.992188 -10.082031 5.742188 -9.546875 5.703125 -8.890625 Z M 5.703125 -8.890625 "/></g></g></g><g fill="#ffffff" fill-opacity="1"><g transform="translate(83.95512, 25.182884)"><g><path d="M 1.609375 0 L 1.609375 -13.8125 L 6.375 -13.8125 L 6.375 -11.8125 L 6.4375 -11.8125 C 6.46875 -11.882812 6.523438 -11.972656 6.609375 -12.078125 C 6.691406 -12.191406 6.863281 -12.382812 7.125 -12.65625 C 7.394531 -12.925781 7.679688 -13.164062 7.984375 -13.375 C 8.296875 -13.59375 8.691406 -13.785156 9.171875 -13.953125 C 9.660156 -14.128906 10.15625 -14.21875 10.65625 -14.21875 C 11.175781 -14.21875 11.6875 -14.144531 12.1875 -14 C 12.695312 -13.851562 13.066406 -13.707031 13.296875 -13.5625 L 13.671875 -13.359375 L 11.6875 -9.3125 C 11.09375 -9.8125 10.265625 -10.0625 9.203125 -10.0625 C 8.628906 -10.0625 8.132812 -9.9375 7.71875 -9.6875 C 7.3125 -9.4375 7.019531 -9.128906 6.84375 -8.765625 C 6.675781 -8.410156 6.554688 -8.109375 6.484375 -7.859375 C 6.410156 -7.609375 6.375 -7.410156 6.375 -7.265625 L 6.375 0 Z M 1.609375 0 "/></g></g></g></g></g></g><g clip-path="url(#6f19e995b6)"><g transform="matrix(1, 0, 0, 1, 0.000000000000003553, 0)"><g clip-path="url(#42cf26f0fb)"><g fill="#6cace3" fill-opacity="1"><g transform="translate(1.097822, 25.182884)"><g><path d="M 0.21875 -17.765625 L 0.21875 -22.203125 L 15.828125 -22.203125 L 15.828125 -17.765625 L 10.546875 -17.765625 L 10.546875 0 L 5.484375 0 L 5.484375 -17.765625 Z M 0.21875 -17.765625 "/></g></g></g><g fill="#6cace3" fill-opacity="1"><g transform="translate(17.147253, 25.182884)"><g><path d="M 1.609375 0 L 1.609375 -13.8125 L 6.375 -13.8125 L 6.375 -11.8125 L 6.4375 -11.8125 C 6.46875 -11.882812 6.523438 -11.972656 6.609375 -12.078125 C 6.691406 -12.191406 6.863281 -12.382812 7.125 -12.65625 C 7.394531 -12.925781 7.679688 -13.164062 7.984375 -13.375 C 8.296875 -13.59375 8.691406 -13.785156 9.171875 -13.953125 C 9.660156 -14.128906 10.15625 -14.21875 10.65625 -14.21875 C 11.175781 -14.21875 11.6875 -14.144531 12.1875 -14 C 12.695312 -13.851562 13.066406 -13.707031 13.296875 -13.5625 L 13.671875 -13.359375 L 11.6875 -9.3125 C 11.09375 -9.8125 10.265625 -10.0625 9.203125 -10.0625 C 8.628906 -10.0625 8.132812 -9.9375 7.71875 -9.6875 C 7.3125 -9.4375 7.019531 -9.128906 6.84375 -8.765625 C 6.675781 -8.410156 6.554688 -8.109375 6.484375 -7.859375 C 6.410156 -7.609375 6.375 -7.410156 6.375 -7.265625 L 6.375 0 Z M 1.609375 0 "/></g></g></g><g fill="#6cace3" fill-opacity="1"><g transform="translate(30.557682, 25.182884)"><g><path d="M 2.5625 -1.703125 C 1.269531 -3.117188 0.625 -4.847656 0.625 -6.890625 C 0.625 -8.941406 1.269531 -10.675781 2.5625 -12.09375 C 3.851562 -13.507812 5.492188 -14.21875 7.484375 -14.21875 C 9.316406 -14.21875 10.820312 -13.640625 12 -12.484375 L 12 -13.8125 L 16.765625 -13.8125 L 16.765625 0 L 12.0625 0 L 12.0625 -1.5625 L 12 -1.5625 C 10.820312 -0.25 9.316406 0.40625 7.484375 0.40625 C 5.492188 0.40625 3.851562 -0.296875 2.5625 -1.703125 Z M 6.609375 -9.234375 C 5.992188 -8.617188 5.6875 -7.835938 5.6875 -6.890625 C 5.6875 -5.941406 5.976562 -5.164062 6.5625 -4.5625 C 7.15625 -3.957031 7.9375 -3.65625 8.90625 -3.65625 C 9.84375 -3.65625 10.609375 -3.957031 11.203125 -4.5625 C 11.804688 -5.175781 12.109375 -5.953125 12.109375 -6.890625 C 12.109375 -7.835938 11.796875 -8.617188 11.171875 -9.234375 C 10.554688 -9.847656 9.800781 -10.15625 8.90625 -10.15625 C 7.988281 -10.15625 7.222656 -9.847656 6.609375 -9.234375 Z M 6.609375 -9.234375 "/></g></g></g><g fill="#6cace3" fill-opacity="1"><g transform="translate(48.9499, 25.182884)"><g><path d="M 2.0625 -21.5 C 2.625 -22.0625 3.289062 -22.34375 4.0625 -22.34375 C 4.832031 -22.34375 5.492188 -22.0625 6.046875 -21.5 C 6.609375 -20.945312 6.890625 -20.285156 6.890625 -19.515625 C 6.890625 -18.742188 6.609375 -18.078125 6.046875 -17.515625 C 5.492188 -16.960938 4.832031 -16.6875 4.0625 -16.6875 C 3.289062 -16.6875 2.625 -16.960938 2.0625 -17.515625 C 1.507812 -18.078125 1.234375 -18.742188 1.234375 -19.515625 C 1.234375 -20.285156 1.507812 -20.945312 2.0625 -21.5 Z M 1.609375 -13.8125 L 1.609375 0 L 6.375 0 L 6.375 -13.8125 Z M 1.609375 -13.8125 "/></g></g></g><g fill="#6cace3" fill-opacity="1"><g transform="translate(57.082332, 25.182884)"><g><path d="M 1.609375 0 L 1.609375 -23.15625 L 6.375 -23.15625 L 6.375 0 Z M 1.609375 0 "/></g></g></g></g></g></g></g></g></svg>